HIERARCHY
ROOT hip
{
	OFFSET 0.000000 0.000000 0.000000
	CHANNELS 6 Xposition Yposition Zposition Zrotation Yrotation Xrotation 
	JOINT lhipjoint
	{
		OFFSET 0.000000 0.000000 0.000000
		CHANNELS 3 Zrotation Yrotation Xrotation
		JOINT lfemur
		{
			OFFSET 1.363060 -1.794630 0.839290
			CHANNELS 3 Zrotation Yrotation Xrotation
			JOINT ltibia
			{
				OFFSET 2.448110 -6.726130 0.000000
				CHANNELS 3 Zrotation Yrotation Xrotation
				JOINT lfoot
				{
					OFFSET 2.562200 -7.039590 0.000000
					CHANNELS 3 Zrotation Yrotation Xrotation
					JOINT ltoes
					{
						OFFSET 0.157640 -0.433110 2.322550
						CHANNELS 3 Zrotation Yrotation Xrotation
						End Site
						{
							OFFSET 0.000000 0.000000 0.000000
						}
					}
				}
			}
		}
	}
	JOINT rhipjoint
	{
		OFFSET 0.000000 0.000000 0.000000
		CHANNELS 3 Zrotation Yrotation Xrotation
		JOINT rfemur
		{
			OFFSET -1.305520 -1.794630 0.839290
			CHANNELS 3 Zrotation Yrotation Xrotation
			JOINT rtibia
			{
				OFFSET -2.542530 -6.985550 0.000000
				CHANNELS 3 Zrotation Yrotation Xrotation
				JOINT rfoot
				{
					OFFSET -2.568260 -7.056230 0.000000
					CHANNELS 3 Zrotation Yrotation Xrotation
					JOINT rtoes
					{
						OFFSET -0.164730 -0.452590 2.363150
						CHANNELS 3 Zrotation Yrotation Xrotation
						End Site
						{
							OFFSET 0.000000 0.000000 0.000000
						}
					}
				}
			}
		}
	}
	JOINT lowerback
	{
		OFFSET 0.000000 0.000000 0.000000
		CHANNELS 3 Zrotation Yrotation Xrotation
		JOINT upperback
		{
			OFFSET 0.028270 2.035590 -0.193380
			CHANNELS 3 Zrotation Yrotation Xrotation
			JOINT thorax
			{
				OFFSET 0.056720 2.048850 -0.042750
				CHANNELS 3 Zrotation Yrotation Xrotation
				JOINT lowerneck
				{
					OFFSET 0.000000 0.000000 0.000000
					CHANNELS 3 Zrotation Yrotation Xrotation
					JOINT upperneck
					{
						OFFSET -0.054170 1.746240 0.172020
						CHANNELS 3 Zrotation Yrotation Xrotation
						JOINT head
						{
							OFFSET 0.104070 1.761360 -0.123970
							CHANNELS 3 Zrotation Yrotation Xrotation
							End Site
							{
								OFFSET 0.000000 0.000000 0.000000
							}
						}
					}
				}
				JOINT lclavicle
				{
					OFFSET 0.000000 0.000000 0.000000
					CHANNELS 3 Zrotation Yrotation Xrotation
					JOINT lhumerus
					{
						OFFSET 3.362410 1.200890 -0.311210
						CHANNELS 3 Zrotation Yrotation Xrotation
						JOINT lradius
						{
							OFFSET 4.983000 -0.000000 -0.000000
							CHANNELS 3 Zrotation Yrotation Xrotation
							JOINT lwrist
							{
								OFFSET 3.483560 -0.000000 -0.000000
								CHANNELS 3 Zrotation Yrotation Xrotation
								JOINT lhand
								{
									OFFSET 0.000000 0.000000 0.000000
									CHANNELS 3 Zrotation Yrotation Xrotation
									JOINT lfingers
									{
										OFFSET 0.715260 -0.000000 -0.000000
										CHANNELS 3 Zrotation Yrotation Xrotation
										End Site
										{
											OFFSET 0.000000 0.000000 0.000000
										}
									}
								}
								JOINT lthumb
								{
									OFFSET 0.000000 0.000000 0.000000
									CHANNELS 3 Zrotation Yrotation Xrotation
									End Site
									{
										OFFSET 0.000000 0.000000 0.000000
									}
								}
							}
						}
					}
				}
				JOINT rclavicle
				{
					OFFSET 0.000000 0.000000 0.000000
					CHANNELS 3 Zrotation Yrotation Xrotation
					JOINT rhumerus
					{
						OFFSET -3.136600 1.374050 -0.404650
						CHANNELS 3 Zrotation Yrotation Xrotation
						JOINT rradius
						{
							OFFSET -5.241900 -0.000000 -0.000000
							CHANNELS 3 Zrotation Yrotation Xrotation
							JOINT rwrist
							{
								OFFSET -3.444170 -0.000000 -0.000000
								CHANNELS 3 Zrotation Yrotation Xrotation
								JOINT rhand
								{
									OFFSET 0.000000 0.000000 0.000000
									CHANNELS 3 Zrotation Yrotation Xrotation
									JOINT rfingers
									{
										OFFSET -0.622530 -0.000000 -0.000000
										CHANNELS 3 Zrotation Yrotation Xrotation
										End Site
										{
											OFFSET 0.000000 0.000000 0.000000
										}
									}
								}
								JOINT rthumb
								{
									OFFSET 0.000000 0.000000 0.000000
									CHANNELS 3 Zrotation Yrotation Xrotation
									End Site
									{
										OFFSET 0.000000 0.000000 0.000000
									}
								}
							}
						}
					}
				}
			}
		}
	}
}
MOTION
Frames: 10
Frame Time: 0.008333
0.124983 17.386528 -20.002423 -5.917247 6.252870 -10.202244 9.269840 1.637949 -1.603967 -19.882065 -8.368496 -7.806451 11.274631 18.260753 64.535938 3.685092 -6.490495 14.876846 0.084800 -1.877900 -5.168400 -14.505310 -2.740611 -2.876767 43.605565 13.974616 0.510322 -3.173076 -9.308684 28.037369 2.605689 -11.739274 -0.461423 -0.056600 1.535800 -4.224500 11.150708 -2.484709 24.796767 0.700645 -0.645938 -1.722871 -4.224913 0.559751 -1.986501 -0.367151 -0.733235 -0.470462 3.725388 -0.439193 22.172444 0.730900 0.031300 7.860100 1.510243 -3.920878 3.046858 -83.477174 3.821179 -0.083346 2.594763 -28.462857 -2.594624 -0.007020 1.845798 26.583183 6.701866 -2.942520 -0.606500 -7.125000 0.000000 0.000000 -14.275300 25.322400 7.006200 -3.271427 6.344451 4.435437 77.243996 2.755151 -7.241913 5.605359 13.819950 -1.306028 -1.884126 0.038564 49.276182 -18.918883 12.600029 -4.467000 7.125000 0.000000 0.000000 6.675300 -15.178000 4.727400 
0.130456 17.395782 -19.905401 -5.858854 6.351162 -10.251197 9.265908 1.642877 -1.521589 -19.963588 -8.907572 -8.403156 10.909373 18.132076 63.400101 3.718960 -6.702630 14.062671 0.096700 -2.005700 -5.521400 -14.467648 -2.764409 -2.995442 43.551459 13.469760 0.867625 -3.183755 -9.298357 28.104931 2.512197 -11.410740 -0.580014 -0.061500 1.600700 -4.403300 11.188277 -2.377478 24.943368 0.683320 -0.488759 -1.712539 -4.327184 0.642406 -2.031377 -0.329981 -0.846360 -0.306210 3.753660 -0.581270 22.290152 0.772200 -0.039600 7.883000 1.406172 -3.892663 3.051790 -83.303579 3.868800 1.226377 3.409990 -29.361775 -2.762177 -0.014772 1.913691 25.202402 6.959676 -2.849810 -0.625300 -7.125000 0.000000 0.000000 -14.089600 25.334800 6.905300 -3.198538 6.321084 4.469442 76.918725 2.938836 -6.076679 5.373236 14.267443 -1.327731 -1.901202 -0.039335 48.328514 -18.991479 12.530569 -4.485300 7.125000 0.000000 0.000000 6.608500 -15.195200 4.677000 
0.137621 17.403942 -19.807982 -5.800062 6.490058 -10.266847 9.263056 1.645282 -1.441099 -20.055653 -9.501161 -8.967811 10.502808 17.974539 62.117629 3.748127 -6.884134 13.202807 0.118600 -2.219900 -6.113800 -14.429660 -2.792050 -3.111894 43.472402 12.948718 1.168441 -3.195634 -9.292786 28.174937 2.429903 -11.120089 -0.722501 -0.068400 1.687300 -4.642300 11.240129 -2.276945 25.023746 0.666601 -0.350259 -1.699108 -4.443591 0.719911 -2.020432 -0.289509 -0.964105 -0.193930 3.785330 -0.731859 22.414101 0.818000 -0.115100 7.918600 1.298204 -3.842214 3.058172 -83.097559 3.863773 2.493660 4.196387 -30.201281 -2.930634 -0.015449 1.972615 23.921452 7.312091 -2.824251 -0.659600 -7.125000 0.000000 0.000000 -13.835000 25.286200 6.789400 -3.127360 6.273489 4.499890 76.599414 3.182614 -5.045055 5.137746 14.682693 -1.348767 -1.912890 -0.112782 47.375559 -19.040283 12.490209 -4.503800 7.125000 0.000000 0.000000 6.559400 -15.191100 4.642400 
0.145980 17.409415 -19.708373 -5.738684 6.637822 -10.294718 9.259098 1.643973 -1.370196 -20.160292 -10.094781 -9.406322 10.043770 17.769613 60.640364 3.774347 -7.046207 12.251301 0.142800 -2.435500 -6.710800 -14.394133 -2.811731 -3.225079 43.397425 12.478500 1.502983 -3.208518 -9.287141 28.249527 2.353207 -10.844757 -0.905188 -0.076000 1.778400 -4.893600 11.282321 -2.191096 25.077117 0.652096 -0.235268 -1.684396 -4.529519 0.783589 -2.004972 -0.272569 -1.065229 -0.040846 3.801866 -0.853391 22.524496 0.858300 -0.178800 7.916800 1.197683 -3.788711 3.069205 -82.957451 3.877782 3.614475 5.001915 -31.035291 -3.105835 -0.022276 2.026297 22.756873 7.549383 -2.892063 -0.697700 -7.125000 0.000000 0.000000 -13.653200 25.155200 6.738100 -3.053702 6.219756 4.537769 76.238766 3.440558 -4.063526 4.932023 15.037032 -1.371049 -1.926443 -0.175122 46.468051 -19.165678 12.482739 -4.550000 7.125000 0.000000 0.000000 6.465500 -15.148700 4.580900 
0.154438 17.413594 -19.609163 -5.663736 6.813897 -10.311641 9.252961 1.640678 -1.300589 -20.266950 -10.695642 -9.787295 9.540784 17.522291 59.001140 3.794708 -7.163333 11.376197 0.170300 -2.658800 -7.330200 -14.355794 -2.834379 -3.338269 43.283631 11.978492 1.811992 -3.221418 -9.279277 28.313219 2.278226 -10.578172 -1.083678 -0.080400 1.828800 -5.032700 11.308830 -2.101038 25.106395 0.637196 -0.124148 -1.671298 -4.618822 0.846414 -1.999819 -0.246377 -1.169999 0.142298 3.828897 -0.979784 22.629863 0.900200 -0.242800 7.897600 1.094242 -3.741159 3.082444 -82.784174 3.875388 4.706320 5.764920 -31.807043 -3.280075 -0.018459 2.073228 21.661274 7.907296 -3.020510 -0.755200 -7.125000 0.000000 0.000000 -13.386300 24.965700 6.659900 -2.975424 6.178651 4.585024 75.906638 3.583554 -2.720608 4.577906 15.614697 -1.397066 -1.931343 -0.276823 45.211871 -19.133407 12.419369 -4.545900 7.125000 0.000000 0.000000 6.462100 -15.165800 4.576100 
0.164887 17.419366 -19.508460 -5.621462 6.979494 -10.347070 9.243281 1.631427 -1.240038 -20.349291 -11.288110 -10.027394 8.995901 17.221922 57.199799 3.797873 -7.192626 10.678885 0.197000 -2.858400 -7.884900 -14.318220 -2.853249 -3.451858 43.212838 11.489682 2.169964 -3.227529 -9.260975 28.346315 2.211456 -10.335339 -1.266713 -0.090000 1.935000 -5.326000 11.388713 -2.020474 25.120389 0.622388 -0.018564 -1.655234 -4.725750 0.911882 -1.946593 -0.235556 -1.260238 0.246708 3.869209 -1.089889 22.753539 0.961700 -0.304300 7.915000 0.979568 -3.685847 3.091308 -82.609478 3.856235 5.808804 6.562933 -32.589270 -3.465839 -0.020518 2.123019 20.547936 8.227117 -3.096424 -0.803700 -7.125000 0.000000 0.000000 -13.150300 24.826400 6.580100 -2.893147 6.123906 4.630188 75.541709 3.719494 -1.180079 4.180807 16.260397 -1.430521 -1.939776 -0.401633 43.722323 -19.172012 12.261856 -4.538200 7.125000 0.000000 0.000000 6.405300 -15.254900 4.523000 
0.175833 17.427028 -19.409249 -5.563485 7.171107 -10.397187 9.231327 1.617769 -1.176183 -20.448333 -11.908283 -10.186858 8.417571 16.875753 55.269533 3.779942 -7.121159 10.259795 0.203300 -2.903100 -8.009100 -14.277031 -2.869337 -3.575137 43.112528 10.964197 2.573696 -3.227060 -9.221226 28.318635 2.159800 -10.139469 -1.454435 -0.094200 1.979800 -5.449700 11.445244 -1.958663 25.156477 0.608015 0.059126 -1.642694 -4.839151 0.962632 -1.914854 -0.195454 -1.350691 0.348769 3.880102 -1.198848 22.869538 0.989600 -0.358100 7.936300 0.885563 -3.633922 3.096919 -82.491656 3.787043 6.646033 7.284790 -33.258577 -3.639200 -0.017922 2.161978 19.685565 8.522777 -3.269208 -0.865100 -7.125000 0.000000 0.000000 -12.925500 24.603300 6.530700 -2.818745 6.080263 4.671130 75.222936 3.857719 0.176870 3.775350 16.872858 -1.470985 -1.948513 -0.517175 42.365305 -19.272944 12.144282 -4.557900 7.125000 0.000000 0.000000 6.311400 -15.296600 4.450300 
0.188470 17.437078 -19.311033 -5.506211 7.344283 -10.430925 9.217235 1.602136 -1.115452 -20.550578 -12.518442 -10.262732 7.818598 16.480616 53.220715 3.737345 -6.951496 9.910975 0.192900 -2.828600 -7.801800 -14.234319 -2.886195 -3.701741 42.990669 10.405684 2.980845 -3.216551 -9.163101 28.229588 2.097403 -9.914056 -1.560816 -0.099200 2.030900 -5.591000 11.497380 -1.887590 25.163741 0.594139 0.144187 -1.629883 -4.937978 1.016622 -1.871113 -0.155993 -1.438965 0.451149 3.888010 -1.304293 22.979405 1.012200 -0.408900 7.947200 0.799152 -3.578571 3.103642 -82.391647 3.689725 7.455906 7.956774 -33.881824 -3.805154 -0.016952 2.201921 18.835641 8.795918 -3.392935 -0.918500 -7.125000 0.000000 0.000000 -12.722100 24.427600 6.476000 -2.738684 6.033852 4.715949 74.890732 3.969489 1.575749 3.314282 17.525461 -1.514011 -1.949300 -0.635276 40.926257 -19.311517 12.077426 -4.576300 7.125000 0.000000 0.000000 6.260400 -15.294700 4.414100 
0.201506 17.445636 -19.213515 -5.464193 7.507034 -10.465751 9.199851 1.583829 -1.059207 -20.620267 -13.098135 -10.266253 7.208130 16.036251 51.075574 3.668450 -6.678592 9.682353 0.163400 -2.604700 -7.179900 -14.193220 -2.898468 -3.829313 42.890638 9.859695 3.438590 -3.194556 -9.081256 28.067759 2.049806 -9.731815 -1.702202 -0.106700 2.105900 -5.798300 11.557288 -1.816722 25.174624 0.580340 0.231383 -1.618081 -5.038906 1.071601 -1.837172 -0.113070 -1.527642 0.565462 3.906742 -1.411594 23.079479 1.040500 -0.460500 7.948100 0.712897 -3.530220 3.110659 -82.302136 3.606806 8.224249 8.631130 -34.494249 -3.974866 -0.016222 2.239394 18.017720 9.044218 -3.546102 -0.975500 -7.125000 0.000000 0.000000 -12.535700 24.225600 6.436800 -2.657208 5.995105 4.764019 74.574528 4.032649 3.063694 2.765271 18.255967 -1.561272 -1.941282 -0.776930 39.360175 -19.287380 11.907294 -4.552200 7.125000 0.000000 0.000000 6.240000 -15.393400 4.386300 
0.216731 17.455587 -19.117588 -5.425038 7.675642 -10.517923 9.180823 1.561469 -1.002160 -20.699569 -13.702645 -10.180542 6.603616 15.552252 48.879281 3.551415 -6.224250 9.586720 0.133300 -2.353300 -6.483100 -14.148847 -2.909382 -3.966953 42.769957 9.263917 3.934286 -3.161697 -8.976108 27.834832 2.002136 -9.550268 -1.776332 -0.112500 2.162500 -5.954900 11.614864 -1.761712 25.197027 0.567584 0.297140 -1.606235 -5.151591 1.116315 -1.799615 -0.025736 -1.621608 0.667711 3.896746 -1.525410 23.184493 1.031000 -0.505000 7.956400 0.639826 -3.476111 3.116012 -82.231692 3.478599 8.852681 9.243675 -35.029154 -4.129112 -0.015678 2.266296 17.378529 9.201929 -3.752797 -1.031800 -7.125000 0.000000 0.000000 -12.411200 23.984200 6.440800 -2.569821 5.960584 4.811854 74.263208 4.083717 4.600544 2.194419 19.000299 -1.616140 -1.932804 -0.921019 37.648046 -19.294234 11.776504 -4.548300 7.125000 0.000000 0.000000 6.205000 -15.443900 4.354600 
